<?xml version="1.0" encoding="UTF-8" standalone="no"?>
<!DOCTYPE svg PUBLIC "-//W3C//DTD SVG 1.1//EN"
 "http://www.w3.org/Graphics/SVG/1.1/DTD/svg11.dtd">
<!-- Generated by graphviz version 3.0.0 (20220226.1711)
 -->
<!-- Title: dependencies Pages: 1 -->
<svg width="726pt" height="247pt"
 viewBox="0.00 0.00 726.00 246.80" xmlns="http://www.w3.org/2000/svg" xmlns:xlink="http://www.w3.org/1999/xlink">
<g id="graph0" class="graph" transform="scale(1 1) rotate(0) translate(4 242.8)">
<title>dependencies</title>
<polygon fill="white" stroke="transparent" points="-4,4 -4,-242.8 722,-242.8 722,4 -4,4"/>
<text text-anchor="middle" x="359" y="-8.2" font-family="sans-serif" font-size="14.00">dependencies</text>
<g id="clust1" class="cluster">
<title>cluster_ItemModule</title>
<polygon fill="none" stroke="black" stroke-dasharray="1,5" points="8,-32.8 8,-230.8 710,-230.8 710,-32.8 8,-32.8"/>
</g>
<g id="clust9" class="cluster">
<title>cluster_ItemModule_providers</title>
<polygon fill="none" stroke="black" points="570,-40.8 570,-92.8 702,-92.8 702,-40.8 570,-40.8"/>
</g>
<g id="clust6" class="cluster">
<title>cluster_ItemModule_imports</title>
<polygon fill="none" stroke="black" points="448,-40.8 448,-92.8 562,-92.8 562,-40.8 448,-40.8"/>
</g>
<g id="clust7" class="cluster">
<title>cluster_ItemModule_exports</title>
<polygon fill="none" stroke="black" points="150,-170.8 150,-222.8 586,-222.8 586,-170.8 150,-170.8"/>
</g>
<g id="clust2" class="cluster">
<title>cluster_ItemModule_declarations</title>
<polygon fill="none" stroke="black" points="16,-40.8 16,-92.8 440,-92.8 440,-40.8 16,-40.8"/>
</g>
<!-- ItemComponent -->
<g id="node1" class="node">
<title>ItemComponent</title>
<polygon fill="#ffffb3" stroke="black" points="432.49,-84.8 325.51,-84.8 325.51,-48.8 432.49,-48.8 432.49,-84.8"/>
<text text-anchor="middle" x="379" y="-62.6" font-family="Times,serif" font-size="14.00">ItemComponent</text>
</g>
<!-- ItemModule -->
<g id="node4" class="node">
<title>ItemModule</title>
<polygon fill="#8dd3c7" stroke="black" points="421.71,-149.8 418.71,-153.8 397.71,-153.8 394.71,-149.8 336.29,-149.8 336.29,-113.8 421.71,-113.8 421.71,-149.8"/>
<text text-anchor="middle" x="379" y="-127.6" font-family="Times,serif" font-size="14.00">ItemModule</text>
</g>
<!-- ItemComponent&#45;&gt;ItemModule -->
<g id="edge1" class="edge">
<title>ItemComponent&#45;&gt;ItemModule</title>
<path fill="none" stroke="black" d="M379,-84.91C379,-84.91 379,-103.79 379,-103.79"/>
<polygon fill="black" stroke="black" points="375.5,-103.79 379,-113.79 382.5,-103.79 375.5,-103.79"/>
</g>
<!-- ItemFormComponent -->
<g id="node2" class="node">
<title>ItemFormComponent</title>
<polygon fill="#ffffb3" stroke="black" points="307.82,-84.8 170.18,-84.8 170.18,-48.8 307.82,-48.8 307.82,-84.8"/>
<text text-anchor="middle" x="239" y="-62.6" font-family="Times,serif" font-size="14.00">ItemFormComponent</text>
</g>
<!-- ItemFormComponent&#45;&gt;ItemModule -->
<g id="edge2" class="edge">
<title>ItemFormComponent&#45;&gt;ItemModule</title>
<path fill="none" stroke="black" d="M298.9,-84.83C298.9,-101.2 298.9,-122.8 298.9,-122.8 298.9,-122.8 326.13,-122.8 326.13,-122.8"/>
<polygon fill="black" stroke="black" points="326.13,-126.3 336.13,-122.8 326.13,-119.3 326.13,-126.3"/>
</g>
<!-- ItemListComponent -->
<g id="node3" class="node">
<title>ItemListComponent</title>
<polygon fill="#ffffb3" stroke="black" points="152.27,-84.8 23.73,-84.8 23.73,-48.8 152.27,-48.8 152.27,-84.8"/>
<text text-anchor="middle" x="88" y="-62.6" font-family="Times,serif" font-size="14.00">ItemListComponent</text>
</g>
<!-- ItemListComponent&#45;&gt;ItemModule -->
<g id="edge3" class="edge">
<title>ItemListComponent&#45;&gt;ItemModule</title>
<path fill="none" stroke="black" d="M88,-84.91C88,-104.14 88,-131.8 88,-131.8 88,-131.8 326.37,-131.8 326.37,-131.8"/>
<polygon fill="black" stroke="black" points="326.37,-135.3 336.37,-131.8 326.37,-128.3 326.37,-135.3"/>
</g>
<!-- ItemComponent  -->
<g id="node6" class="node">
<title>ItemComponent </title>
<polygon fill="#fb8072" stroke="black" points="578.49,-214.8 467.51,-214.8 467.51,-178.8 578.49,-178.8 578.49,-214.8"/>
<text text-anchor="middle" x="523" y="-192.6" font-family="Times,serif" font-size="14.00">ItemComponent </text>
</g>
<!-- ItemModule&#45;&gt;ItemComponent  -->
<g id="edge5" class="edge">
<title>ItemModule&#45;&gt;ItemComponent </title>
<path fill="none" stroke="black" stroke-dasharray="5,2" d="M421.85,-140.8C460.39,-140.8 510.99,-140.8 510.99,-140.8 510.99,-140.8 510.99,-168.77 510.99,-168.77"/>
<polygon fill="black" stroke="black" points="507.49,-168.77 510.99,-178.77 514.49,-168.77 507.49,-168.77"/>
</g>
<!-- ItemFormComponent  -->
<g id="node7" class="node">
<title>ItemFormComponent </title>
<polygon fill="#fb8072" stroke="black" points="449.32,-214.8 308.68,-214.8 308.68,-178.8 449.32,-178.8 449.32,-214.8"/>
<text text-anchor="middle" x="379" y="-192.6" font-family="Times,serif" font-size="14.00">ItemFormComponent </text>
</g>
<!-- ItemModule&#45;&gt;ItemFormComponent  -->
<g id="edge6" class="edge">
<title>ItemModule&#45;&gt;ItemFormComponent </title>
<path fill="none" stroke="black" stroke-dasharray="5,2" d="M379,-149.91C379,-149.91 379,-168.79 379,-168.79"/>
<polygon fill="black" stroke="black" points="375.5,-168.79 379,-178.79 382.5,-168.79 375.5,-168.79"/>
</g>
<!-- ItemListComponent  -->
<g id="node8" class="node">
<title>ItemListComponent </title>
<polygon fill="#fb8072" stroke="black" points="290.27,-214.8 157.73,-214.8 157.73,-178.8 290.27,-178.8 290.27,-214.8"/>
<text text-anchor="middle" x="224" y="-192.6" font-family="Times,serif" font-size="14.00">ItemListComponent </text>
</g>
<!-- ItemModule&#45;&gt;ItemListComponent  -->
<g id="edge7" class="edge">
<title>ItemModule&#45;&gt;ItemListComponent </title>
<path fill="none" stroke="black" stroke-dasharray="5,2" d="M336.37,-140.8C292.41,-140.8 230.24,-140.8 230.24,-140.8 230.24,-140.8 230.24,-168.77 230.24,-168.77"/>
<polygon fill="black" stroke="black" points="226.74,-168.77 230.24,-178.77 233.74,-168.77 226.74,-168.77"/>
</g>
<!-- SharedModule -->
<g id="node5" class="node">
<title>SharedModule</title>
<polygon fill="#8dd3c7" stroke="black" points="554.43,-84.8 551.43,-88.8 530.43,-88.8 527.43,-84.8 455.57,-84.8 455.57,-48.8 554.43,-48.8 554.43,-84.8"/>
<text text-anchor="middle" x="505" y="-62.6" font-family="Times,serif" font-size="14.00">SharedModule</text>
</g>
<!-- SharedModule&#45;&gt;ItemModule -->
<g id="edge4" class="edge">
<title>SharedModule&#45;&gt;ItemModule</title>
<path fill="none" stroke="black" d="M461.77,-84.83C461.77,-101.2 461.77,-122.8 461.77,-122.8 461.77,-122.8 431.84,-122.8 431.84,-122.8"/>
<polygon fill="black" stroke="black" points="431.84,-119.3 421.84,-122.8 431.84,-126.3 431.84,-119.3"/>
</g>
<!-- ItemService -->
<g id="node9" class="node">
<title>ItemService</title>
<ellipse fill="#fdb462" stroke="black" cx="636" cy="-66.8" rx="57.88" ry="18"/>
<text text-anchor="middle" x="636" y="-62.6" font-family="Times,serif" font-size="14.00">ItemService</text>
</g>
<!-- ItemService&#45;&gt;ItemModule -->
<g id="edge8" class="edge">
<title>ItemService&#45;&gt;ItemModule</title>
<path fill="none" stroke="black" d="M636,-84.91C636,-104.14 636,-131.8 636,-131.8 636,-131.8 431.73,-131.8 431.73,-131.8"/>
<polygon fill="black" stroke="black" points="431.73,-128.3 421.73,-131.8 431.73,-135.3 431.73,-128.3"/>
</g>
</g>
</svg>
