<?xml version="1.0" encoding="UTF-8" standalone="no"?>
<!DOCTYPE svg PUBLIC "-//W3C//DTD SVG 1.1//EN"
 "http://www.w3.org/Graphics/SVG/1.1/DTD/svg11.dtd">
<!-- Generated by graphviz version 3.0.0 (20220226.1711)
 -->
<!-- Title: dependencies Pages: 1 -->
<svg width="870pt" height="247pt"
 viewBox="0.00 0.00 870.00 246.80" xmlns="http://www.w3.org/2000/svg" xmlns:xlink="http://www.w3.org/1999/xlink">
<g id="graph0" class="graph" transform="scale(1 1) rotate(0) translate(4 242.8)">
<title>dependencies</title>
<polygon fill="white" stroke="transparent" points="-4,4 -4,-242.8 866,-242.8 866,4 -4,4"/>
<text text-anchor="middle" x="431" y="-8.2" font-family="sans-serif" font-size="14.00">dependencies</text>
<g id="clust1" class="cluster">
<title>cluster_PackagingModule</title>
<polygon fill="none" stroke="black" stroke-dasharray="1,5" points="8,-32.8 8,-230.8 854,-230.8 854,-32.8 8,-32.8"/>
</g>
<g id="clust9" class="cluster">
<title>cluster_PackagingModule_providers</title>
<polygon fill="none" stroke="black" points="670,-40.8 670,-92.8 846,-92.8 846,-40.8 670,-40.8"/>
</g>
<g id="clust2" class="cluster">
<title>cluster_PackagingModule_declarations</title>
<polygon fill="none" stroke="black" points="138,-40.8 138,-92.8 662,-92.8 662,-40.8 138,-40.8"/>
</g>
<g id="clust6" class="cluster">
<title>cluster_PackagingModule_imports</title>
<polygon fill="none" stroke="black" points="16,-40.8 16,-92.8 130,-92.8 130,-40.8 16,-40.8"/>
</g>
<g id="clust7" class="cluster">
<title>cluster_PackagingModule_exports</title>
<polygon fill="none" stroke="black" points="134,-170.8 134,-222.8 667,-222.8 667,-170.8 134,-170.8"/>
</g>
<!-- PackagingComponent -->
<g id="node1" class="node">
<title>PackagingComponent</title>
<polygon fill="#ffffb3" stroke="black" points="653.65,-84.8 514.35,-84.8 514.35,-48.8 653.65,-48.8 653.65,-84.8"/>
<text text-anchor="middle" x="584" y="-62.6" font-family="Times,serif" font-size="14.00">PackagingComponent</text>
</g>
<!-- PackagingModule -->
<g id="node4" class="node">
<title>PackagingModule</title>
<polygon fill="#8dd3c7" stroke="black" points="469.87,-149.8 466.87,-153.8 445.87,-153.8 442.87,-149.8 352.13,-149.8 352.13,-113.8 469.87,-113.8 469.87,-149.8"/>
<text text-anchor="middle" x="411" y="-127.6" font-family="Times,serif" font-size="14.00">PackagingModule</text>
</g>
<!-- PackagingComponent&#45;&gt;PackagingModule -->
<g id="edge1" class="edge">
<title>PackagingComponent&#45;&gt;PackagingModule</title>
<path fill="none" stroke="black" d="M607.69,-84.83C607.69,-101.2 607.69,-122.8 607.69,-122.8 607.69,-122.8 480.01,-122.8 480.01,-122.8"/>
<polygon fill="black" stroke="black" points="480.01,-119.3 470.01,-122.8 480.01,-126.3 480.01,-119.3"/>
</g>
<!-- PackagingFormComponent -->
<g id="node2" class="node">
<title>PackagingFormComponent</title>
<polygon fill="#ffffb3" stroke="black" points="495.99,-84.8 326.01,-84.8 326.01,-48.8 495.99,-48.8 495.99,-84.8"/>
<text text-anchor="middle" x="411" y="-62.6" font-family="Times,serif" font-size="14.00">PackagingFormComponent</text>
</g>
<!-- PackagingFormComponent&#45;&gt;PackagingModule -->
<g id="edge2" class="edge">
<title>PackagingFormComponent&#45;&gt;PackagingModule</title>
<path fill="none" stroke="black" d="M411,-84.91C411,-84.91 411,-103.79 411,-103.79"/>
<polygon fill="black" stroke="black" points="407.5,-103.79 411,-113.79 414.5,-103.79 407.5,-103.79"/>
</g>
<!-- PackagingListComponent -->
<g id="node3" class="node">
<title>PackagingListComponent</title>
<polygon fill="#ffffb3" stroke="black" points="307.93,-84.8 146.07,-84.8 146.07,-48.8 307.93,-48.8 307.93,-84.8"/>
<text text-anchor="middle" x="227" y="-62.6" font-family="Times,serif" font-size="14.00">PackagingListComponent</text>
</g>
<!-- PackagingListComponent&#45;&gt;PackagingModule -->
<g id="edge3" class="edge">
<title>PackagingListComponent&#45;&gt;PackagingModule</title>
<path fill="none" stroke="black" d="M253.07,-84.83C253.07,-101.2 253.07,-122.8 253.07,-122.8 253.07,-122.8 341.74,-122.8 341.74,-122.8"/>
<polygon fill="black" stroke="black" points="341.74,-126.3 351.74,-122.8 341.74,-119.3 341.74,-126.3"/>
</g>
<!-- PackagingComponent  -->
<g id="node6" class="node">
<title>PackagingComponent </title>
<polygon fill="#fb8072" stroke="black" points="658.65,-214.8 515.35,-214.8 515.35,-178.8 658.65,-178.8 658.65,-214.8"/>
<text text-anchor="middle" x="587" y="-192.6" font-family="Times,serif" font-size="14.00">PackagingComponent </text>
</g>
<!-- PackagingModule&#45;&gt;PackagingComponent  -->
<g id="edge5" class="edge">
<title>PackagingModule&#45;&gt;PackagingComponent </title>
<path fill="none" stroke="black" stroke-dasharray="5,2" d="M470.07,-140.8C512.25,-140.8 561.56,-140.8 561.56,-140.8 561.56,-140.8 561.56,-168.77 561.56,-168.77"/>
<polygon fill="black" stroke="black" points="558.06,-168.77 561.56,-178.77 565.06,-168.77 558.06,-168.77"/>
</g>
<!-- PackagingFormComponent  -->
<g id="node7" class="node">
<title>PackagingFormComponent </title>
<polygon fill="#fb8072" stroke="black" points="497.99,-214.8 324.01,-214.8 324.01,-178.8 497.99,-178.8 497.99,-214.8"/>
<text text-anchor="middle" x="411" y="-192.6" font-family="Times,serif" font-size="14.00">PackagingFormComponent </text>
</g>
<!-- PackagingModule&#45;&gt;PackagingFormComponent  -->
<g id="edge6" class="edge">
<title>PackagingModule&#45;&gt;PackagingFormComponent </title>
<path fill="none" stroke="black" stroke-dasharray="5,2" d="M411,-149.91C411,-149.91 411,-168.79 411,-168.79"/>
<polygon fill="black" stroke="black" points="407.5,-168.79 411,-178.79 414.5,-168.79 407.5,-168.79"/>
</g>
<!-- PackagingListComponent  -->
<g id="node8" class="node">
<title>PackagingListComponent </title>
<polygon fill="#fb8072" stroke="black" points="306.43,-214.8 141.57,-214.8 141.57,-178.8 306.43,-178.8 306.43,-214.8"/>
<text text-anchor="middle" x="224" y="-192.6" font-family="Times,serif" font-size="14.00">PackagingListComponent </text>
</g>
<!-- PackagingModule&#45;&gt;PackagingListComponent  -->
<g id="edge7" class="edge">
<title>PackagingModule&#45;&gt;PackagingListComponent </title>
<path fill="none" stroke="black" stroke-dasharray="5,2" d="M351.85,-140.8C289.34,-140.8 199.68,-140.8 199.68,-140.8 199.68,-140.8 199.68,-168.77 199.68,-168.77"/>
<polygon fill="black" stroke="black" points="196.18,-168.77 199.68,-178.77 203.18,-168.77 196.18,-168.77"/>
</g>
<!-- SharedModule -->
<g id="node5" class="node">
<title>SharedModule</title>
<polygon fill="#8dd3c7" stroke="black" points="122.43,-84.8 119.43,-88.8 98.43,-88.8 95.43,-84.8 23.57,-84.8 23.57,-48.8 122.43,-48.8 122.43,-84.8"/>
<text text-anchor="middle" x="73" y="-62.6" font-family="Times,serif" font-size="14.00">SharedModule</text>
</g>
<!-- SharedModule&#45;&gt;PackagingModule -->
<g id="edge4" class="edge">
<title>SharedModule&#45;&gt;PackagingModule</title>
<path fill="none" stroke="black" d="M73,-84.91C73,-104.14 73,-131.8 73,-131.8 73,-131.8 342.12,-131.8 342.12,-131.8"/>
<polygon fill="black" stroke="black" points="342.12,-135.3 352.12,-131.8 342.12,-128.3 342.12,-135.3"/>
</g>
<!-- PackagingService -->
<g id="node9" class="node">
<title>PackagingService</title>
<ellipse fill="#fdb462" stroke="black" cx="758" cy="-66.8" rx="80.44" ry="18"/>
<text text-anchor="middle" x="758" y="-62.6" font-family="Times,serif" font-size="14.00">PackagingService</text>
</g>
<!-- PackagingService&#45;&gt;PackagingModule -->
<g id="edge8" class="edge">
<title>PackagingService&#45;&gt;PackagingModule</title>
<path fill="none" stroke="black" d="M758,-84.91C758,-104.14 758,-131.8 758,-131.8 758,-131.8 480.26,-131.8 480.26,-131.8"/>
<polygon fill="black" stroke="black" points="480.26,-128.3 470.26,-131.8 480.26,-135.3 480.26,-128.3"/>
</g>
</g>
</svg>
