<?xml version="1.0" encoding="UTF-8" standalone="no"?>
<!DOCTYPE svg PUBLIC "-//W3C//DTD SVG 1.1//EN"
 "http://www.w3.org/Graphics/SVG/1.1/DTD/svg11.dtd">
<!-- Generated by graphviz version 3.0.0 (20220226.1711)
 -->
<!-- Title: dependencies Pages: 1 -->
<svg width="1046pt" height="247pt"
 viewBox="0.00 0.00 1046.00 246.80" xmlns="http://www.w3.org/2000/svg" xmlns:xlink="http://www.w3.org/1999/xlink">
<g id="graph0" class="graph" transform="scale(1 1) rotate(0) translate(4 242.8)">
<title>dependencies</title>
<polygon fill="white" stroke="transparent" points="-4,4 -4,-242.8 1042,-242.8 1042,4 -4,4"/>
<text text-anchor="middle" x="519" y="-8.2" font-family="sans-serif" font-size="14.00">dependencies</text>
<g id="clust1" class="cluster">
<title>cluster_AppModule</title>
<polygon fill="none" stroke="black" stroke-dasharray="1,5" points="8,-32.8 8,-230.8 1030,-230.8 1030,-32.8 8,-32.8"/>
</g>
<g id="clust8" class="cluster">
<title>cluster_AppModule_bootstrap</title>
<polygon fill="none" stroke="black" points="442,-170.8 442,-222.8 566,-222.8 566,-170.8 442,-170.8"/>
</g>
<g id="clust2" class="cluster">
<title>cluster_AppModule_declarations</title>
<polygon fill="none" stroke="black" points="635,-40.8 635,-92.8 1022,-92.8 1022,-40.8 635,-40.8"/>
</g>
<g id="clust6" class="cluster">
<title>cluster_AppModule_imports</title>
<polygon fill="none" stroke="black" points="16,-40.8 16,-92.8 627,-92.8 627,-40.8 16,-40.8"/>
</g>
<!-- AppComponent -->
<g id="node1" class="node">
<title>AppComponent</title>
<polygon fill="#ffffb3" stroke="black" points="1013.94,-84.8 908.06,-84.8 908.06,-48.8 1013.94,-48.8 1013.94,-84.8"/>
<text text-anchor="middle" x="961" y="-62.6" font-family="Times,serif" font-size="14.00">AppComponent</text>
</g>
<!-- AppModule -->
<g id="node4" class="node">
<title>AppModule</title>
<polygon fill="#8dd3c7" stroke="black" points="545.66,-149.8 542.66,-153.8 521.66,-153.8 518.66,-149.8 462.34,-149.8 462.34,-113.8 545.66,-113.8 545.66,-149.8"/>
<text text-anchor="middle" x="504" y="-127.6" font-family="Times,serif" font-size="14.00">AppModule</text>
</g>
<!-- AppComponent&#45;&gt;AppModule -->
<g id="edge1" class="edge">
<title>AppComponent&#45;&gt;AppModule</title>
<path fill="none" stroke="black" d="M961,-85.09C961,-107.01 961,-140.8 961,-140.8 961,-140.8 555.77,-140.8 555.77,-140.8"/>
<polygon fill="black" stroke="black" points="555.77,-137.3 545.77,-140.8 555.77,-144.3 555.77,-137.3"/>
</g>
<!-- HomeComponent -->
<g id="node2" class="node">
<title>HomeComponent</title>
<polygon fill="#ffffb3" stroke="black" points="890.55,-84.8 775.45,-84.8 775.45,-48.8 890.55,-48.8 890.55,-84.8"/>
<text text-anchor="middle" x="833" y="-62.6" font-family="Times,serif" font-size="14.00">HomeComponent</text>
</g>
<!-- HomeComponent&#45;&gt;AppModule -->
<g id="edge2" class="edge">
<title>HomeComponent&#45;&gt;AppModule</title>
<path fill="none" stroke="black" d="M833,-84.91C833,-104.14 833,-131.8 833,-131.8 833,-131.8 555.67,-131.8 555.67,-131.8"/>
<polygon fill="black" stroke="black" points="555.67,-128.3 545.67,-131.8 555.67,-135.3 555.67,-128.3"/>
</g>
<!-- MenuComponent -->
<g id="node3" class="node">
<title>MenuComponent</title>
<polygon fill="#ffffb3" stroke="black" points="756.99,-84.8 643.01,-84.8 643.01,-48.8 756.99,-48.8 756.99,-84.8"/>
<text text-anchor="middle" x="700" y="-62.6" font-family="Times,serif" font-size="14.00">MenuComponent</text>
</g>
<!-- MenuComponent&#45;&gt;AppModule -->
<g id="edge3" class="edge">
<title>MenuComponent&#45;&gt;AppModule</title>
<path fill="none" stroke="black" d="M700,-84.83C700,-101.2 700,-122.8 700,-122.8 700,-122.8 556.05,-122.8 556.05,-122.8"/>
<polygon fill="black" stroke="black" points="556.05,-119.3 546.05,-122.8 556.05,-126.3 556.05,-119.3"/>
</g>
<!-- AppComponent  -->
<g id="node10" class="node">
<title>AppComponent </title>
<polygon fill="#80b1d3" stroke="black" points="558.44,-214.8 449.56,-214.8 449.56,-178.8 558.44,-178.8 558.44,-214.8"/>
<text text-anchor="middle" x="504" y="-192.6" font-family="Times,serif" font-size="14.00">AppComponent </text>
</g>
<!-- AppModule&#45;&gt;AppComponent  -->
<g id="edge9" class="edge">
<title>AppModule&#45;&gt;AppComponent </title>
<path fill="none" stroke="black" stroke-dasharray="1,5" d="M504,-149.91C504,-149.91 504,-168.79 504,-168.79"/>
<polygon fill="black" stroke="black" points="500.5,-168.79 504,-178.79 507.5,-168.79 500.5,-168.79"/>
</g>
<!-- AdminModule -->
<g id="node5" class="node">
<title>AdminModule</title>
<polygon fill="#8dd3c7" stroke="black" points="619.44,-84.8 616.44,-88.8 595.44,-88.8 592.44,-84.8 520.56,-84.8 520.56,-48.8 619.44,-48.8 619.44,-84.8"/>
<text text-anchor="middle" x="570" y="-62.6" font-family="Times,serif" font-size="14.00">AdminModule</text>
</g>
<!-- AdminModule&#45;&gt;AppModule -->
<g id="edge4" class="edge">
<title>AdminModule&#45;&gt;AppModule</title>
<path fill="none" stroke="black" d="M533.31,-84.91C533.31,-84.91 533.31,-103.79 533.31,-103.79"/>
<polygon fill="black" stroke="black" points="529.81,-103.79 533.31,-113.79 536.81,-103.79 529.81,-103.79"/>
</g>
<!-- AppRoutingModule -->
<g id="node6" class="node">
<title>AppRoutingModule</title>
<polygon fill="#8dd3c7" stroke="black" points="502.28,-84.8 499.28,-88.8 478.28,-88.8 475.28,-84.8 373.72,-84.8 373.72,-48.8 502.28,-48.8 502.28,-84.8"/>
<text text-anchor="middle" x="438" y="-62.6" font-family="Times,serif" font-size="14.00">AppRoutingModule</text>
</g>
<!-- AppRoutingModule&#45;&gt;AppModule -->
<g id="edge5" class="edge">
<title>AppRoutingModule&#45;&gt;AppModule</title>
<path fill="none" stroke="black" d="M482.28,-84.91C482.28,-84.91 482.28,-103.79 482.28,-103.79"/>
<polygon fill="black" stroke="black" points="478.78,-103.79 482.28,-113.79 485.78,-103.79 478.78,-103.79"/>
</g>
<!-- OrderModule -->
<g id="node7" class="node">
<title>OrderModule</title>
<polygon fill="#8dd3c7" stroke="black" points="356.2,-84.8 353.2,-88.8 332.2,-88.8 329.2,-84.8 263.8,-84.8 263.8,-48.8 356.2,-48.8 356.2,-84.8"/>
<text text-anchor="middle" x="310" y="-62.6" font-family="Times,serif" font-size="14.00">OrderModule</text>
</g>
<!-- OrderModule&#45;&gt;AppModule -->
<g id="edge6" class="edge">
<title>OrderModule&#45;&gt;AppModule</title>
<path fill="none" stroke="black" d="M310,-84.83C310,-101.2 310,-122.8 310,-122.8 310,-122.8 451.9,-122.8 451.9,-122.8"/>
<polygon fill="black" stroke="black" points="451.9,-126.3 461.9,-122.8 451.9,-119.3 451.9,-126.3"/>
</g>
<!-- SecurityModule -->
<g id="node8" class="node">
<title>SecurityModule</title>
<polygon fill="#8dd3c7" stroke="black" points="246.21,-84.8 243.21,-88.8 222.21,-88.8 219.21,-84.8 139.79,-84.8 139.79,-48.8 246.21,-48.8 246.21,-84.8"/>
<text text-anchor="middle" x="193" y="-62.6" font-family="Times,serif" font-size="14.00">SecurityModule</text>
</g>
<!-- SecurityModule&#45;&gt;AppModule -->
<g id="edge7" class="edge">
<title>SecurityModule&#45;&gt;AppModule</title>
<path fill="none" stroke="black" d="M193,-84.91C193,-104.14 193,-131.8 193,-131.8 193,-131.8 452.06,-131.8 452.06,-131.8"/>
<polygon fill="black" stroke="black" points="452.06,-135.3 462.06,-131.8 452.06,-128.3 452.06,-135.3"/>
</g>
<!-- SharedModule -->
<g id="node9" class="node">
<title>SharedModule</title>
<polygon fill="#8dd3c7" stroke="black" points="122.43,-84.8 119.43,-88.8 98.43,-88.8 95.43,-84.8 23.57,-84.8 23.57,-48.8 122.43,-48.8 122.43,-84.8"/>
<text text-anchor="middle" x="73" y="-62.6" font-family="Times,serif" font-size="14.00">SharedModule</text>
</g>
<!-- SharedModule&#45;&gt;AppModule -->
<g id="edge8" class="edge">
<title>SharedModule&#45;&gt;AppModule</title>
<path fill="none" stroke="black" d="M73,-85.09C73,-107.01 73,-140.8 73,-140.8 73,-140.8 452.28,-140.8 452.28,-140.8"/>
<polygon fill="black" stroke="black" points="452.28,-144.3 462.28,-140.8 452.28,-137.3 452.28,-144.3"/>
</g>
</g>
</svg>
