<?xml version="1.0" encoding="UTF-8" standalone="no"?>
<!DOCTYPE svg PUBLIC "-//W3C//DTD SVG 1.1//EN"
 "http://www.w3.org/Graphics/SVG/1.1/DTD/svg11.dtd">
<!-- Generated by graphviz version 3.0.0 (20220226.1711)
 -->
<!-- Title: dependencies Pages: 1 -->
<svg width="1050pt" height="247pt"
 viewBox="0.00 0.00 1050.00 246.80" xmlns="http://www.w3.org/2000/svg" xmlns:xlink="http://www.w3.org/1999/xlink">
<g id="graph0" class="graph" transform="scale(1 1) rotate(0) translate(4 242.8)">
<title>dependencies</title>
<polygon fill="white" stroke="transparent" points="-4,4 -4,-242.8 1046,-242.8 1046,4 -4,4"/>
<text text-anchor="middle" x="521" y="-8.2" font-family="sans-serif" font-size="14.00">dependencies</text>
<g id="clust1" class="cluster">
<title>cluster_ProductModule</title>
<polygon fill="none" stroke="black" stroke-dasharray="1,5" points="8,-32.8 8,-230.8 1034,-230.8 1034,-32.8 8,-32.8"/>
</g>
<g id="clust5" class="cluster">
<title>cluster_ProductModule_imports</title>
<polygon fill="none" stroke="black" points="506,-40.8 506,-92.8 1026,-92.8 1026,-40.8 506,-40.8"/>
</g>
<g id="clust6" class="cluster">
<title>cluster_ProductModule_exports</title>
<polygon fill="none" stroke="black" points="240,-170.8 240,-222.8 810,-222.8 810,-170.8 240,-170.8"/>
</g>
<g id="clust8" class="cluster">
<title>cluster_ProductModule_providers</title>
<polygon fill="none" stroke="black" points="342,-40.8 342,-92.8 498,-92.8 498,-40.8 342,-40.8"/>
</g>
<g id="clust2" class="cluster">
<title>cluster_ProductModule_declarations</title>
<polygon fill="none" stroke="black" points="16,-40.8 16,-92.8 334,-92.8 334,-40.8 16,-40.8"/>
</g>
<!-- ProductComponent -->
<g id="node1" class="node">
<title>ProductComponent</title>
<polygon fill="#ffffb3" stroke="black" points="326.38,-84.8 201.62,-84.8 201.62,-48.8 326.38,-48.8 326.38,-84.8"/>
<text text-anchor="middle" x="264" y="-62.6" font-family="Times,serif" font-size="14.00">ProductComponent</text>
</g>
<!-- ProductModule -->
<g id="node3" class="node">
<title>ProductModule</title>
<polygon fill="#8dd3c7" stroke="black" points="614.6,-149.8 611.6,-153.8 590.6,-153.8 587.6,-149.8 511.4,-149.8 511.4,-113.8 614.6,-113.8 614.6,-149.8"/>
<text text-anchor="middle" x="563" y="-127.6" font-family="Times,serif" font-size="14.00">ProductModule</text>
</g>
<!-- ProductComponent&#45;&gt;ProductModule -->
<g id="edge1" class="edge">
<title>ProductComponent&#45;&gt;ProductModule</title>
<path fill="none" stroke="black" d="M287.07,-85.07C287.07,-103.36 287.07,-128.8 287.07,-128.8 287.07,-128.8 501.42,-128.8 501.42,-128.8"/>
<polygon fill="black" stroke="black" points="501.42,-132.3 511.42,-128.8 501.42,-125.3 501.42,-132.3"/>
</g>
<!-- ProductDetailComponent -->
<g id="node2" class="node">
<title>ProductDetailComponent</title>
<polygon fill="#ffffb3" stroke="black" points="183.59,-84.8 24.41,-84.8 24.41,-48.8 183.59,-48.8 183.59,-84.8"/>
<text text-anchor="middle" x="104" y="-62.6" font-family="Times,serif" font-size="14.00">ProductDetailComponent</text>
</g>
<!-- ProductDetailComponent&#45;&gt;ProductModule -->
<g id="edge2" class="edge">
<title>ProductDetailComponent&#45;&gt;ProductModule</title>
<path fill="none" stroke="black" d="M104,-84.93C104,-105.37 104,-135.8 104,-135.8 104,-135.8 501.24,-135.8 501.24,-135.8"/>
<polygon fill="black" stroke="black" points="501.24,-139.3 511.24,-135.8 501.24,-132.3 501.24,-139.3"/>
</g>
<!-- ItemModule  -->
<g id="node8" class="node">
<title>ItemModule </title>
<polygon fill="#fb8072" stroke="black" points="802.21,-214.8 713.79,-214.8 713.79,-178.8 802.21,-178.8 802.21,-214.8"/>
<text text-anchor="middle" x="758" y="-192.6" font-family="Times,serif" font-size="14.00">ItemModule </text>
</g>
<!-- ProductModule&#45;&gt;ItemModule  -->
<g id="edge7" class="edge">
<title>ProductModule&#45;&gt;ItemModule </title>
<path fill="none" stroke="black" stroke-dasharray="5,2" d="M614.92,-142.8C668.98,-142.8 745.88,-142.8 745.88,-142.8 745.88,-142.8 745.88,-168.52 745.88,-168.52"/>
<polygon fill="black" stroke="black" points="742.38,-168.52 745.88,-178.52 749.38,-168.52 742.38,-168.52"/>
</g>
<!-- PackagingModule  -->
<g id="node9" class="node">
<title>PackagingModule </title>
<polygon fill="#fb8072" stroke="black" points="695.87,-214.8 574.13,-214.8 574.13,-178.8 695.87,-178.8 695.87,-214.8"/>
<text text-anchor="middle" x="635" y="-192.6" font-family="Times,serif" font-size="14.00">PackagingModule </text>
</g>
<!-- ProductModule&#45;&gt;PackagingModule  -->
<g id="edge8" class="edge">
<title>ProductModule&#45;&gt;PackagingModule </title>
<path fill="none" stroke="black" stroke-dasharray="5,2" d="M594.43,-149.91C594.43,-149.91 594.43,-168.79 594.43,-168.79"/>
<polygon fill="black" stroke="black" points="590.93,-168.79 594.43,-178.79 597.93,-168.79 590.93,-168.79"/>
</g>
<!-- ProductComponent  -->
<g id="node10" class="node">
<title>ProductComponent </title>
<polygon fill="#fb8072" stroke="black" points="556.38,-214.8 427.62,-214.8 427.62,-178.8 556.38,-178.8 556.38,-214.8"/>
<text text-anchor="middle" x="492" y="-192.6" font-family="Times,serif" font-size="14.00">ProductComponent </text>
</g>
<!-- ProductModule&#45;&gt;ProductComponent  -->
<g id="edge9" class="edge">
<title>ProductModule&#45;&gt;ProductComponent </title>
<path fill="none" stroke="black" stroke-dasharray="5,2" d="M533.82,-149.91C533.82,-149.91 533.82,-168.79 533.82,-168.79"/>
<polygon fill="black" stroke="black" points="530.32,-168.79 533.82,-178.79 537.32,-168.79 530.32,-168.79"/>
</g>
<!-- ProductDetailComponent  -->
<g id="node11" class="node">
<title>ProductDetailComponent </title>
<polygon fill="#fb8072" stroke="black" points="410.09,-214.8 247.91,-214.8 247.91,-178.8 410.09,-178.8 410.09,-214.8"/>
<text text-anchor="middle" x="329" y="-192.6" font-family="Times,serif" font-size="14.00">ProductDetailComponent </text>
</g>
<!-- ProductModule&#45;&gt;ProductDetailComponent  -->
<g id="edge10" class="edge">
<title>ProductModule&#45;&gt;ProductDetailComponent </title>
<path fill="none" stroke="black" stroke-dasharray="5,2" d="M511.09,-142.8C457.02,-142.8 380.13,-142.8 380.13,-142.8 380.13,-142.8 380.13,-168.52 380.13,-168.52"/>
<polygon fill="black" stroke="black" points="376.63,-168.52 380.13,-178.52 383.63,-168.52 376.63,-168.52"/>
</g>
<!-- ItemModule -->
<g id="node4" class="node">
<title>ItemModule</title>
<polygon fill="#8dd3c7" stroke="black" points="1017.71,-84.8 1014.71,-88.8 993.71,-88.8 990.71,-84.8 932.29,-84.8 932.29,-48.8 1017.71,-48.8 1017.71,-84.8"/>
<text text-anchor="middle" x="975" y="-62.6" font-family="Times,serif" font-size="14.00">ItemModule</text>
</g>
<!-- ItemModule&#45;&gt;ProductModule -->
<g id="edge3" class="edge">
<title>ItemModule&#45;&gt;ProductModule</title>
<path fill="none" stroke="black" d="M975,-84.93C975,-105.37 975,-135.8 975,-135.8 975,-135.8 624.76,-135.8 624.76,-135.8"/>
<polygon fill="black" stroke="black" points="624.76,-132.3 614.76,-135.8 624.76,-139.3 624.76,-132.3"/>
</g>
<!-- PackagingModule -->
<g id="node5" class="node">
<title>PackagingModule</title>
<polygon fill="#8dd3c7" stroke="black" points="913.87,-84.8 910.87,-88.8 889.87,-88.8 886.87,-84.8 796.13,-84.8 796.13,-48.8 913.87,-48.8 913.87,-84.8"/>
<text text-anchor="middle" x="855" y="-62.6" font-family="Times,serif" font-size="14.00">PackagingModule</text>
</g>
<!-- PackagingModule&#45;&gt;ProductModule -->
<g id="edge4" class="edge">
<title>PackagingModule&#45;&gt;ProductModule</title>
<path fill="none" stroke="black" d="M858.14,-85.07C858.14,-103.36 858.14,-128.8 858.14,-128.8 858.14,-128.8 624.75,-128.8 624.75,-128.8"/>
<polygon fill="black" stroke="black" points="624.75,-125.3 614.75,-128.8 624.75,-132.3 624.75,-125.3"/>
</g>
<!-- ProductRoutingModule -->
<g id="node6" class="node">
<title>ProductRoutingModule</title>
<polygon fill="#8dd3c7" stroke="black" points="778.22,-84.8 775.22,-88.8 754.22,-88.8 751.22,-84.8 629.78,-84.8 629.78,-48.8 778.22,-48.8 778.22,-84.8"/>
<text text-anchor="middle" x="704" y="-62.6" font-family="Times,serif" font-size="14.00">ProductRoutingModule</text>
</g>
<!-- ProductRoutingModule&#45;&gt;ProductModule -->
<g id="edge5" class="edge">
<title>ProductRoutingModule&#45;&gt;ProductModule</title>
<path fill="none" stroke="black" d="M662.79,-84.81C662.79,-100.85 662.79,-121.8 662.79,-121.8 662.79,-121.8 624.65,-121.8 624.65,-121.8"/>
<polygon fill="black" stroke="black" points="624.65,-118.3 614.65,-121.8 624.65,-125.3 624.65,-118.3"/>
</g>
<!-- SharedModule -->
<g id="node7" class="node">
<title>SharedModule</title>
<polygon fill="#8dd3c7" stroke="black" points="612.43,-84.8 609.43,-88.8 588.43,-88.8 585.43,-84.8 513.57,-84.8 513.57,-48.8 612.43,-48.8 612.43,-84.8"/>
<text text-anchor="middle" x="563" y="-62.6" font-family="Times,serif" font-size="14.00">SharedModule</text>
</g>
<!-- SharedModule&#45;&gt;ProductModule -->
<g id="edge6" class="edge">
<title>SharedModule&#45;&gt;ProductModule</title>
<path fill="none" stroke="black" d="M563,-84.91C563,-84.91 563,-103.79 563,-103.79"/>
<polygon fill="black" stroke="black" points="559.5,-103.79 563,-113.79 566.5,-103.79 559.5,-103.79"/>
</g>
<!-- ProductService -->
<g id="node12" class="node">
<title>ProductService</title>
<ellipse fill="#fdb462" stroke="black" cx="420" cy="-66.8" rx="70.07" ry="18"/>
<text text-anchor="middle" x="420" y="-62.6" font-family="Times,serif" font-size="14.00">ProductService</text>
</g>
<!-- ProductService&#45;&gt;ProductModule -->
<g id="edge11" class="edge">
<title>ProductService&#45;&gt;ProductModule</title>
<path fill="none" stroke="black" d="M458.92,-81.83C458.92,-98.11 458.92,-121.8 458.92,-121.8 458.92,-121.8 501.27,-121.8 501.27,-121.8"/>
<polygon fill="black" stroke="black" points="501.27,-125.3 511.27,-121.8 501.27,-118.3 501.27,-125.3"/>
</g>
</g>
</svg>
