<?xml version="1.0" encoding="UTF-8" standalone="no"?>
<!DOCTYPE svg PUBLIC "-//W3C//DTD SVG 1.1//EN"
 "http://www.w3.org/Graphics/SVG/1.1/DTD/svg11.dtd">
<!-- Generated by graphviz version 3.0.0 (20220226.1711)
 -->
<!-- Title: dependencies Pages: 1 -->
<svg width="3111pt" height="326pt"
 viewBox="0.00 0.00 3111.00 325.80" xmlns="http://www.w3.org/2000/svg" xmlns:xlink="http://www.w3.org/1999/xlink">
<g id="graph0" class="graph" transform="scale(1 1) rotate(0) translate(4 321.8)">
<title>dependencies</title>
<polygon fill="white" stroke="transparent" points="-4,4 -4,-321.8 3107,-321.8 3107,4 -4,4"/>
<text text-anchor="middle" x="1551.5" y="-8.2" font-family="sans-serif" font-size="14.00">dependencies</text>
<g id="clust7" class="cluster">
<title>cluster_AppModule</title>
<polygon fill="none" stroke="black" stroke-dasharray="1,5" points="162,-32.8 162,-309.8 1074,-309.8 1074,-32.8 162,-32.8"/>
</g>
<g id="clust8" class="cluster">
<title>cluster_AppModule_declarations</title>
<polygon fill="none" stroke="black" points="679,-116.8 679,-168.8 1066,-168.8 1066,-116.8 679,-116.8"/>
</g>
<g id="clust12" class="cluster">
<title>cluster_AppModule_imports</title>
<polygon fill="none" stroke="black" points="170,-40.8 170,-168.8 671,-168.8 671,-40.8 170,-40.8"/>
</g>
<g id="clust14" class="cluster">
<title>cluster_AppModule_bootstrap</title>
<polygon fill="none" stroke="black" points="542,-249.8 542,-301.8 666,-301.8 666,-249.8 542,-249.8"/>
</g>
<g id="clust22" class="cluster">
<title>cluster_ItemModule</title>
<polygon fill="none" stroke="black" stroke-dasharray="1,5" points="1782,-32.8 1782,-241.8 2363,-241.8 2363,-32.8 1782,-32.8"/>
</g>
<g id="clust23" class="cluster">
<title>cluster_ItemModule_declarations</title>
<polygon fill="none" stroke="black" points="1930,-40.8 1930,-92.8 2355,-92.8 2355,-40.8 1930,-40.8"/>
</g>
<g id="clust28" class="cluster">
<title>cluster_ItemModule_exports</title>
<polygon fill="none" stroke="black" points="1790,-181.8 1790,-233.8 2225,-233.8 2225,-181.8 1790,-181.8"/>
</g>
<g id="clust30" class="cluster">
<title>cluster_ItemModule_providers</title>
<polygon fill="none" stroke="black" points="1790,-40.8 1790,-92.8 1922,-92.8 1922,-40.8 1790,-40.8"/>
</g>
<g id="clust31" class="cluster">
<title>cluster_OrderModule</title>
<polygon fill="none" stroke="black" stroke-dasharray="1,5" points="8,-32.8 8,-100.8 154,-100.8 154,-32.8 8,-32.8"/>
</g>
<g id="clust32" class="cluster">
<title>cluster_OrderModule_declarations</title>
<polygon fill="none" stroke="black" points="16,-40.8 16,-92.8 146,-92.8 146,-40.8 16,-40.8"/>
</g>
<g id="clust38" class="cluster">
<title>cluster_PackagingModule</title>
<polygon fill="none" stroke="black" stroke-dasharray="1,5" points="2371,-32.8 2371,-241.8 3095,-241.8 3095,-32.8 2371,-32.8"/>
</g>
<g id="clust39" class="cluster">
<title>cluster_PackagingModule_declarations</title>
<polygon fill="none" stroke="black" points="2563,-40.8 2563,-92.8 3087,-92.8 3087,-40.8 2563,-40.8"/>
</g>
<g id="clust44" class="cluster">
<title>cluster_PackagingModule_exports</title>
<polygon fill="none" stroke="black" points="2379,-181.8 2379,-233.8 2912,-233.8 2912,-181.8 2379,-181.8"/>
</g>
<g id="clust46" class="cluster">
<title>cluster_PackagingModule_providers</title>
<polygon fill="none" stroke="black" points="2379,-40.8 2379,-92.8 2555,-92.8 2555,-40.8 2379,-40.8"/>
</g>
<g id="clust47" class="cluster">
<title>cluster_ProductModule</title>
<polygon fill="none" stroke="black" stroke-dasharray="1,5" points="1082,-108.8 1082,-309.8 1752,-309.8 1752,-108.8 1082,-108.8"/>
</g>
<g id="clust48" class="cluster">
<title>cluster_ProductModule_declarations</title>
<polygon fill="none" stroke="black" points="1426,-116.8 1426,-168.8 1744,-168.8 1744,-116.8 1426,-116.8"/>
</g>
<g id="clust51" class="cluster">
<title>cluster_ProductModule_imports</title>
<polygon fill="none" stroke="black" points="1254,-116.8 1254,-168.8 1418,-168.8 1418,-116.8 1254,-116.8"/>
</g>
<g id="clust52" class="cluster">
<title>cluster_ProductModule_exports</title>
<polygon fill="none" stroke="black" points="1173,-249.8 1173,-301.8 1744,-301.8 1744,-249.8 1173,-249.8"/>
</g>
<g id="clust54" class="cluster">
<title>cluster_ProductModule_providers</title>
<polygon fill="none" stroke="black" points="1090,-116.8 1090,-168.8 1246,-168.8 1246,-116.8 1090,-116.8"/>
</g>
<!-- AppComponent -->
<g id="node1" class="node">
<title>AppComponent</title>
<polygon fill="#ffffb3" stroke="black" points="1057.94,-160.8 952.06,-160.8 952.06,-124.8 1057.94,-124.8 1057.94,-160.8"/>
<text text-anchor="middle" x="1005" y="-138.6" font-family="Times,serif" font-size="14.00">AppComponent</text>
</g>
<!-- AppModule -->
<g id="node4" class="node">
<title>AppModule</title>
<polygon fill="#8dd3c7" stroke="black" points="645.66,-225.8 642.66,-229.8 621.66,-229.8 618.66,-225.8 562.34,-225.8 562.34,-189.8 645.66,-189.8 645.66,-225.8"/>
<text text-anchor="middle" x="604" y="-203.6" font-family="Times,serif" font-size="14.00">AppModule</text>
</g>
<!-- AppComponent&#45;&gt;AppModule -->
<g id="edge1" class="edge">
<title>AppComponent&#45;&gt;AppModule</title>
<path fill="none" stroke="black" d="M1005,-160.83C1005,-177.2 1005,-198.8 1005,-198.8 1005,-198.8 655.78,-198.8 655.78,-198.8"/>
<polygon fill="black" stroke="black" points="655.78,-195.3 645.78,-198.8 655.78,-202.3 655.78,-195.3"/>
</g>
<!-- HomeComponent -->
<g id="node2" class="node">
<title>HomeComponent</title>
<polygon fill="#ffffb3" stroke="black" points="934.55,-160.8 819.45,-160.8 819.45,-124.8 934.55,-124.8 934.55,-160.8"/>
<text text-anchor="middle" x="877" y="-138.6" font-family="Times,serif" font-size="14.00">HomeComponent</text>
</g>
<!-- HomeComponent&#45;&gt;AppModule -->
<g id="edge2" class="edge">
<title>HomeComponent&#45;&gt;AppModule</title>
<path fill="none" stroke="black" d="M877,-160.99C877,-175.98 877,-194.8 877,-194.8 877,-194.8 655.76,-194.8 655.76,-194.8"/>
<polygon fill="black" stroke="black" points="655.76,-191.3 645.76,-194.8 655.76,-198.3 655.76,-191.3"/>
</g>
<!-- MenuComponent -->
<g id="node3" class="node">
<title>MenuComponent</title>
<polygon fill="#ffffb3" stroke="black" points="800.99,-160.8 687.01,-160.8 687.01,-124.8 800.99,-124.8 800.99,-160.8"/>
<text text-anchor="middle" x="744" y="-138.6" font-family="Times,serif" font-size="14.00">MenuComponent</text>
</g>
<!-- MenuComponent&#45;&gt;AppModule -->
<g id="edge3" class="edge">
<title>MenuComponent&#45;&gt;AppModule</title>
<path fill="none" stroke="black" d="M686.81,-142.8C658.22,-142.8 629.62,-142.8 629.62,-142.8 629.62,-142.8 629.62,-179.69 629.62,-179.69"/>
<polygon fill="black" stroke="black" points="626.12,-179.69 629.62,-189.69 633.12,-179.69 626.12,-179.69"/>
</g>
<!-- AppComponent  -->
<g id="node10" class="node">
<title>AppComponent </title>
<polygon fill="#80b1d3" stroke="black" points="658.44,-293.8 549.56,-293.8 549.56,-257.8 658.44,-257.8 658.44,-293.8"/>
<text text-anchor="middle" x="604" y="-271.6" font-family="Times,serif" font-size="14.00">AppComponent </text>
</g>
<!-- AppModule&#45;&gt;AppComponent  -->
<g id="edge9" class="edge">
<title>AppModule&#45;&gt;AppComponent </title>
<path fill="none" stroke="black" stroke-dasharray="1,5" d="M604,-226.02C604,-226.02 604,-247.53 604,-247.53"/>
<polygon fill="black" stroke="black" points="600.5,-247.53 604,-257.53 607.5,-247.53 600.5,-247.53"/>
</g>
<!-- AdminModule -->
<g id="node5" class="node">
<title>AdminModule</title>
<polygon fill="#8dd3c7" stroke="black" points="276.44,-84.8 273.44,-88.8 252.44,-88.8 249.44,-84.8 177.56,-84.8 177.56,-48.8 276.44,-48.8 276.44,-84.8"/>
<text text-anchor="middle" x="227" y="-62.6" font-family="Times,serif" font-size="14.00">AdminModule</text>
</g>
<!-- AdminModule&#45;&gt;AppModule -->
<g id="edge4" class="edge">
<title>AdminModule&#45;&gt;AppModule</title>
<path fill="none" stroke="black" d="M227,-84.89C227,-124.79 227,-216.8 227,-216.8 227,-216.8 552.21,-216.8 552.21,-216.8"/>
<polygon fill="black" stroke="black" points="552.21,-220.3 562.21,-216.8 552.21,-213.3 552.21,-220.3"/>
</g>
<!-- AppRoutingModule -->
<g id="node6" class="node">
<title>AppRoutingModule</title>
<polygon fill="#8dd3c7" stroke="black" points="423.28,-84.8 420.28,-88.8 399.28,-88.8 396.28,-84.8 294.72,-84.8 294.72,-48.8 423.28,-48.8 423.28,-84.8"/>
<text text-anchor="middle" x="359" y="-62.6" font-family="Times,serif" font-size="14.00">AppRoutingModule</text>
</g>
<!-- AppRoutingModule&#45;&gt;AppModule -->
<g id="edge5" class="edge">
<title>AppRoutingModule&#45;&gt;AppModule</title>
<path fill="none" stroke="black" d="M359,-84.94C359,-123.03 359,-207.8 359,-207.8 359,-207.8 552.16,-207.8 552.16,-207.8"/>
<polygon fill="black" stroke="black" points="552.16,-211.3 562.16,-207.8 552.16,-204.3 552.16,-211.3"/>
</g>
<!-- OrderModule -->
<g id="node7" class="node">
<title>OrderModule</title>
<polygon fill="#8dd3c7" stroke="black" points="535.2,-160.8 532.2,-164.8 511.2,-164.8 508.2,-160.8 442.8,-160.8 442.8,-124.8 535.2,-124.8 535.2,-160.8"/>
<text text-anchor="middle" x="489" y="-138.6" font-family="Times,serif" font-size="14.00">OrderModule</text>
</g>
<!-- OrderModule&#45;&gt;AppModule -->
<g id="edge6" class="edge">
<title>OrderModule&#45;&gt;AppModule</title>
<path fill="none" stroke="black" d="M535.2,-151.8C564.61,-151.8 597.2,-151.8 597.2,-151.8 597.2,-151.8 597.2,-179.77 597.2,-179.77"/>
<polygon fill="black" stroke="black" points="593.7,-179.77 597.2,-189.77 600.7,-179.77 593.7,-179.77"/>
</g>
<!-- SecurityModule -->
<g id="node8" class="node">
<title>SecurityModule</title>
<polygon fill="#8dd3c7" stroke="black" points="547.21,-84.8 544.21,-88.8 523.21,-88.8 520.21,-84.8 440.79,-84.8 440.79,-48.8 547.21,-48.8 547.21,-84.8"/>
<text text-anchor="middle" x="494" y="-62.6" font-family="Times,serif" font-size="14.00">SecurityModule</text>
</g>
<!-- SecurityModule&#45;&gt;AppModule -->
<g id="edge7" class="edge">
<title>SecurityModule&#45;&gt;AppModule</title>
<path fill="none" stroke="black" d="M541.1,-84.88C541.1,-121.03 541.1,-198.8 541.1,-198.8 541.1,-198.8 552.05,-198.8 552.05,-198.8"/>
<polygon fill="black" stroke="black" points="552.05,-202.3 562.05,-198.8 552.05,-195.3 552.05,-202.3"/>
</g>
<!-- SharedModule -->
<g id="node9" class="node">
<title>SharedModule</title>
<polygon fill="#8dd3c7" stroke="black" points="663.43,-84.8 660.43,-88.8 639.43,-88.8 636.43,-84.8 564.57,-84.8 564.57,-48.8 663.43,-48.8 663.43,-84.8"/>
<text text-anchor="middle" x="614" y="-62.6" font-family="Times,serif" font-size="14.00">SharedModule</text>
</g>
<!-- SharedModule&#45;&gt;AppModule -->
<g id="edge8" class="edge">
<title>SharedModule&#45;&gt;AppModule</title>
<path fill="none" stroke="black" d="M613.41,-84.94C613.41,-84.94 613.41,-179.73 613.41,-179.73"/>
<polygon fill="black" stroke="black" points="609.91,-179.72 613.41,-189.73 616.91,-179.73 609.91,-179.72"/>
</g>
<!-- SharedModule&#45;&gt;OrderModule -->
<g id="edge19" class="edge">
<title>SharedModule&#45;&gt;OrderModule</title>
<path fill="none" stroke="black" d="M581,-85.11C581,-104.95 581,-133.8 581,-133.8 581,-133.8 545.27,-133.8 545.27,-133.8"/>
<polygon fill="black" stroke="black" points="545.27,-130.3 535.27,-133.8 545.27,-137.3 545.27,-130.3"/>
</g>
<!-- ItemModule -->
<g id="node14" class="node">
<title>ItemModule</title>
<polygon fill="#8dd3c7" stroke="black" points="2033.71,-160.8 2030.71,-164.8 2009.71,-164.8 2006.71,-160.8 1948.29,-160.8 1948.29,-124.8 2033.71,-124.8 2033.71,-160.8"/>
<text text-anchor="middle" x="1991" y="-138.6" font-family="Times,serif" font-size="14.00">ItemModule</text>
</g>
<!-- SharedModule&#45;&gt;ItemModule -->
<g id="edge13" class="edge">
<title>SharedModule&#45;&gt;ItemModule</title>
<path fill="none" stroke="black" d="M663.47,-66.8C882.83,-66.8 1756.82,-66.8 1756.82,-66.8 1756.82,-66.8 1756.82,-142.8 1756.82,-142.8 1756.82,-142.8 1938.32,-142.8 1938.32,-142.8"/>
<polygon fill="black" stroke="black" points="1938.32,-146.3 1948.32,-142.8 1938.32,-139.3 1938.32,-146.3"/>
</g>
<!-- PackagingModule -->
<g id="node23" class="node">
<title>PackagingModule</title>
<polygon fill="#8dd3c7" stroke="black" points="2699.87,-160.8 2696.87,-164.8 2675.87,-164.8 2672.87,-160.8 2582.13,-160.8 2582.13,-124.8 2699.87,-124.8 2699.87,-160.8"/>
<text text-anchor="middle" x="2641" y="-138.6" font-family="Times,serif" font-size="14.00">PackagingModule</text>
</g>
<!-- SharedModule&#45;&gt;PackagingModule -->
<g id="edge23" class="edge">
<title>SharedModule&#45;&gt;PackagingModule</title>
<path fill="none" stroke="black" d="M650.04,-84.91C650.04,-94.7 650.04,-104.8 650.04,-104.8 650.04,-104.8 2621.36,-104.8 2621.36,-104.8 2621.36,-104.8 2621.36,-114.69 2621.36,-114.69"/>
<polygon fill="black" stroke="black" points="2617.86,-114.69 2621.36,-124.69 2624.86,-114.69 2617.86,-114.69"/>
</g>
<!-- ProductModule -->
<g id="node30" class="node">
<title>ProductModule</title>
<polygon fill="#8dd3c7" stroke="black" points="1565.6,-225.8 1562.6,-229.8 1541.6,-229.8 1538.6,-225.8 1462.4,-225.8 1462.4,-189.8 1565.6,-189.8 1565.6,-225.8"/>
<text text-anchor="middle" x="1514" y="-203.6" font-family="Times,serif" font-size="14.00">ProductModule</text>
</g>
<!-- SharedModule&#45;&gt;ProductModule -->
<g id="edge33" class="edge">
<title>SharedModule&#45;&gt;ProductModule</title>
<path fill="none" stroke="black" d="M654.26,-85C654.26,-124.13 654.26,-212.8 654.26,-212.8 654.26,-212.8 1452.16,-212.8 1452.16,-212.8"/>
<polygon fill="black" stroke="black" points="1452.16,-216.3 1462.16,-212.8 1452.16,-209.3 1452.16,-216.3"/>
</g>
<!-- ItemComponent -->
<g id="node11" class="node">
<title>ItemComponent</title>
<polygon fill="#ffffb3" stroke="black" points="2044.49,-84.8 1937.51,-84.8 1937.51,-48.8 2044.49,-48.8 2044.49,-84.8"/>
<text text-anchor="middle" x="1991" y="-62.6" font-family="Times,serif" font-size="14.00">ItemComponent</text>
</g>
<!-- ItemComponent&#45;&gt;ItemModule -->
<g id="edge10" class="edge">
<title>ItemComponent&#45;&gt;ItemModule</title>
<path fill="none" stroke="black" d="M1991,-84.81C1991,-84.81 1991,-114.65 1991,-114.65"/>
<polygon fill="black" stroke="black" points="1987.5,-114.65 1991,-124.65 1994.5,-114.65 1987.5,-114.65"/>
</g>
<!-- ItemFormComponent -->
<g id="node12" class="node">
<title>ItemFormComponent</title>
<polygon fill="#ffffb3" stroke="black" points="2346.82,-84.8 2209.18,-84.8 2209.18,-48.8 2346.82,-48.8 2346.82,-84.8"/>
<text text-anchor="middle" x="2278" y="-62.6" font-family="Times,serif" font-size="14.00">ItemFormComponent</text>
</g>
<!-- ItemFormComponent&#45;&gt;ItemModule -->
<g id="edge11" class="edge">
<title>ItemFormComponent&#45;&gt;ItemModule</title>
<path fill="none" stroke="black" d="M2213.24,-85C2213.24,-109.16 2213.24,-148.8 2213.24,-148.8 2213.24,-148.8 2043.85,-148.8 2043.85,-148.8"/>
<polygon fill="black" stroke="black" points="2043.85,-145.3 2033.85,-148.8 2043.85,-152.3 2043.85,-145.3"/>
</g>
<!-- ItemListComponent -->
<g id="node13" class="node">
<title>ItemListComponent</title>
<polygon fill="#ffffb3" stroke="black" points="2191.27,-84.8 2062.73,-84.8 2062.73,-48.8 2191.27,-48.8 2191.27,-84.8"/>
<text text-anchor="middle" x="2127" y="-62.6" font-family="Times,serif" font-size="14.00">ItemListComponent</text>
</g>
<!-- ItemListComponent&#45;&gt;ItemModule -->
<g id="edge12" class="edge">
<title>ItemListComponent&#45;&gt;ItemModule</title>
<path fill="none" stroke="black" d="M2076.06,-84.81C2076.06,-107.29 2076.06,-142.8 2076.06,-142.8 2076.06,-142.8 2044.03,-142.8 2044.03,-142.8"/>
<polygon fill="black" stroke="black" points="2044.03,-139.3 2034.03,-142.8 2044.03,-146.3 2044.03,-139.3"/>
</g>
<!-- ItemComponent  -->
<g id="node15" class="node">
<title>ItemComponent </title>
<polygon fill="#fb8072" stroke="black" points="2067.49,-225.8 1956.51,-225.8 1956.51,-189.8 2067.49,-189.8 2067.49,-225.8"/>
<text text-anchor="middle" x="2012" y="-203.6" font-family="Times,serif" font-size="14.00">ItemComponent </text>
</g>
<!-- ItemModule&#45;&gt;ItemComponent  -->
<g id="edge14" class="edge">
<title>ItemModule&#45;&gt;ItemComponent </title>
<path fill="none" stroke="black" stroke-dasharray="5,2" d="M1995.18,-160.91C1995.18,-160.91 1995.18,-179.79 1995.18,-179.79"/>
<polygon fill="black" stroke="black" points="1991.68,-179.79 1995.18,-189.79 1998.68,-179.79 1991.68,-179.79"/>
</g>
<!-- ItemFormComponent  -->
<g id="node16" class="node">
<title>ItemFormComponent </title>
<polygon fill="#fb8072" stroke="black" points="1938.32,-225.8 1797.68,-225.8 1797.68,-189.8 1938.32,-189.8 1938.32,-225.8"/>
<text text-anchor="middle" x="1868" y="-203.6" font-family="Times,serif" font-size="14.00">ItemFormComponent </text>
</g>
<!-- ItemModule&#45;&gt;ItemFormComponent  -->
<g id="edge15" class="edge">
<title>ItemModule&#45;&gt;ItemFormComponent </title>
<path fill="none" stroke="black" stroke-dasharray="5,2" d="M1952.58,-160.91C1952.58,-180.14 1952.58,-207.8 1952.58,-207.8 1952.58,-207.8 1948.61,-207.8 1948.61,-207.8"/>
<polygon fill="black" stroke="black" points="1948.61,-204.3 1938.61,-207.8 1948.61,-211.3 1948.61,-204.3"/>
</g>
<!-- ItemListComponent  -->
<g id="node17" class="node">
<title>ItemListComponent </title>
<polygon fill="#fb8072" stroke="black" points="2217.27,-225.8 2084.73,-225.8 2084.73,-189.8 2217.27,-189.8 2217.27,-225.8"/>
<text text-anchor="middle" x="2151" y="-203.6" font-family="Times,serif" font-size="14.00">ItemListComponent </text>
</g>
<!-- ItemModule&#45;&gt;ItemListComponent  -->
<g id="edge16" class="edge">
<title>ItemModule&#45;&gt;ItemListComponent </title>
<path fill="none" stroke="black" stroke-dasharray="5,2" d="M2033.95,-154.8C2077.38,-154.8 2138.12,-154.8 2138.12,-154.8 2138.12,-154.8 2138.12,-179.56 2138.12,-179.56"/>
<polygon fill="black" stroke="black" points="2134.63,-179.56 2138.12,-189.56 2141.63,-179.56 2134.63,-179.56"/>
</g>
<!-- ItemModule&#45;&gt;ProductModule -->
<g id="edge30" class="edge">
<title>ItemModule&#45;&gt;ProductModule</title>
<path fill="none" stroke="black" d="M1948.25,-151.8C1885.86,-151.8 1777.21,-151.8 1777.21,-151.8 1777.21,-151.8 1777.21,-207.8 1777.21,-207.8 1777.21,-207.8 1575.69,-207.8 1575.69,-207.8"/>
<polygon fill="black" stroke="black" points="1575.69,-204.3 1565.69,-207.8 1575.69,-211.3 1575.69,-204.3"/>
</g>
<!-- ItemService -->
<g id="node18" class="node">
<title>ItemService</title>
<ellipse fill="#fdb462" stroke="black" cx="1856" cy="-66.8" rx="57.88" ry="18"/>
<text text-anchor="middle" x="1856" y="-62.6" font-family="Times,serif" font-size="14.00">ItemService</text>
</g>
<!-- ItemService&#45;&gt;ItemModule -->
<g id="edge17" class="edge">
<title>ItemService&#45;&gt;ItemModule</title>
<path fill="none" stroke="black" d="M1856,-85.11C1856,-104.95 1856,-133.8 1856,-133.8 1856,-133.8 1938.29,-133.8 1938.29,-133.8"/>
<polygon fill="black" stroke="black" points="1938.29,-137.3 1948.29,-133.8 1938.29,-130.3 1938.29,-137.3"/>
</g>
<!-- OrderComponent -->
<g id="node19" class="node">
<title>OrderComponent</title>
<polygon fill="#ffffb3" stroke="black" points="137.98,-84.8 24.02,-84.8 24.02,-48.8 137.98,-48.8 137.98,-84.8"/>
<text text-anchor="middle" x="81" y="-62.6" font-family="Times,serif" font-size="14.00">OrderComponent</text>
</g>
<!-- OrderComponent&#45;&gt;OrderModule -->
<g id="edge18" class="edge">
<title>OrderComponent&#45;&gt;OrderModule</title>
<path fill="none" stroke="black" d="M81,-84.81C81,-107.29 81,-142.8 81,-142.8 81,-142.8 432.59,-142.8 432.59,-142.8"/>
<polygon fill="black" stroke="black" points="432.59,-146.3 442.59,-142.8 432.59,-139.3 432.59,-146.3"/>
</g>
<!-- PackagingComponent -->
<g id="node20" class="node">
<title>PackagingComponent</title>
<polygon fill="#ffffb3" stroke="black" points="2710.65,-84.8 2571.35,-84.8 2571.35,-48.8 2710.65,-48.8 2710.65,-84.8"/>
<text text-anchor="middle" x="2641" y="-62.6" font-family="Times,serif" font-size="14.00">PackagingComponent</text>
</g>
<!-- PackagingComponent&#45;&gt;PackagingModule -->
<g id="edge20" class="edge">
<title>PackagingComponent&#45;&gt;PackagingModule</title>
<path fill="none" stroke="black" d="M2660.64,-84.81C2660.64,-84.81 2660.64,-114.65 2660.64,-114.65"/>
<polygon fill="black" stroke="black" points="2657.14,-114.65 2660.64,-124.65 2664.14,-114.65 2657.14,-114.65"/>
</g>
<!-- PackagingFormComponent -->
<g id="node21" class="node">
<title>PackagingFormComponent</title>
<polygon fill="#ffffb3" stroke="black" points="3078.99,-84.8 2909.01,-84.8 2909.01,-48.8 3078.99,-48.8 3078.99,-84.8"/>
<text text-anchor="middle" x="2994" y="-62.6" font-family="Times,serif" font-size="14.00">PackagingFormComponent</text>
</g>
<!-- PackagingFormComponent&#45;&gt;PackagingModule -->
<g id="edge21" class="edge">
<title>PackagingFormComponent&#45;&gt;PackagingModule</title>
<path fill="none" stroke="black" d="M2994,-84.81C2994,-107.29 2994,-142.8 2994,-142.8 2994,-142.8 2710.08,-142.8 2710.08,-142.8"/>
<polygon fill="black" stroke="black" points="2710.08,-139.3 2700.08,-142.8 2710.08,-146.3 2710.08,-139.3"/>
</g>
<!-- PackagingListComponent -->
<g id="node22" class="node">
<title>PackagingListComponent</title>
<polygon fill="#ffffb3" stroke="black" points="2890.93,-84.8 2729.07,-84.8 2729.07,-48.8 2890.93,-48.8 2890.93,-84.8"/>
<text text-anchor="middle" x="2810" y="-62.6" font-family="Times,serif" font-size="14.00">PackagingListComponent</text>
</g>
<!-- PackagingListComponent&#45;&gt;PackagingModule -->
<g id="edge22" class="edge">
<title>PackagingListComponent&#45;&gt;PackagingModule</title>
<path fill="none" stroke="black" d="M2734.41,-85.11C2734.41,-104.95 2734.41,-133.8 2734.41,-133.8 2734.41,-133.8 2709.89,-133.8 2709.89,-133.8"/>
<polygon fill="black" stroke="black" points="2709.89,-130.3 2699.89,-133.8 2709.89,-137.3 2709.89,-130.3"/>
</g>
<!-- PackagingComponent  -->
<g id="node24" class="node">
<title>PackagingComponent </title>
<polygon fill="#fb8072" stroke="black" points="2721.65,-225.8 2578.35,-225.8 2578.35,-189.8 2721.65,-189.8 2721.65,-225.8"/>
<text text-anchor="middle" x="2650" y="-203.6" font-family="Times,serif" font-size="14.00">PackagingComponent </text>
</g>
<!-- PackagingModule&#45;&gt;PackagingComponent  -->
<g id="edge24" class="edge">
<title>PackagingModule&#45;&gt;PackagingComponent </title>
<path fill="none" stroke="black" stroke-dasharray="5,2" d="M2660.64,-160.91C2660.64,-160.91 2660.64,-179.79 2660.64,-179.79"/>
<polygon fill="black" stroke="black" points="2657.14,-179.79 2660.64,-189.79 2664.14,-179.79 2657.14,-179.79"/>
</g>
<!-- PackagingFormComponent  -->
<g id="node25" class="node">
<title>PackagingFormComponent </title>
<polygon fill="#fb8072" stroke="black" points="2560.99,-225.8 2387.01,-225.8 2387.01,-189.8 2560.99,-189.8 2560.99,-225.8"/>
<text text-anchor="middle" x="2474" y="-203.6" font-family="Times,serif" font-size="14.00">PackagingFormComponent </text>
</g>
<!-- PackagingModule&#45;&gt;PackagingFormComponent  -->
<g id="edge25" class="edge">
<title>PackagingModule&#45;&gt;PackagingFormComponent </title>
<path fill="none" stroke="black" stroke-dasharray="5,2" d="M2581.99,-136.8C2566.47,-136.8 2553.98,-136.8 2553.98,-136.8 2553.98,-136.8 2553.98,-179.52 2553.98,-179.52"/>
<polygon fill="black" stroke="black" points="2550.48,-179.52 2553.98,-189.52 2557.48,-179.52 2550.48,-179.52"/>
</g>
<!-- PackagingListComponent  -->
<g id="node26" class="node">
<title>PackagingListComponent </title>
<polygon fill="#fb8072" stroke="black" points="2904.43,-225.8 2739.57,-225.8 2739.57,-189.8 2904.43,-189.8 2904.43,-225.8"/>
<text text-anchor="middle" x="2822" y="-203.6" font-family="Times,serif" font-size="14.00">PackagingListComponent </text>
</g>
<!-- PackagingModule&#45;&gt;PackagingListComponent  -->
<g id="edge26" class="edge">
<title>PackagingModule&#45;&gt;PackagingListComponent </title>
<path fill="none" stroke="black" stroke-dasharray="5,2" d="M2699.95,-151.8C2750.47,-151.8 2815.12,-151.8 2815.12,-151.8 2815.12,-151.8 2815.12,-179.77 2815.12,-179.77"/>
<polygon fill="black" stroke="black" points="2811.63,-179.77 2815.12,-189.77 2818.63,-179.77 2811.63,-179.77"/>
</g>
<!-- PackagingModule&#45;&gt;ProductModule -->
<g id="edge31" class="edge">
<title>PackagingModule&#45;&gt;ProductModule</title>
<path fill="none" stroke="black" d="M2621.36,-160.84C2621.36,-168.55 2621.36,-175.8 2621.36,-175.8 2621.36,-175.8 1531.18,-175.8 1531.18,-175.8 1531.18,-175.8 1531.18,-179.56 1531.18,-179.56"/>
<polygon fill="black" stroke="black" points="1527.68,-179.56 1531.18,-189.56 1534.68,-179.56 1527.68,-179.56"/>
</g>
<!-- PackagingService -->
<g id="node27" class="node">
<title>PackagingService</title>
<ellipse fill="#fdb462" stroke="black" cx="2467" cy="-66.8" rx="80.44" ry="18"/>
<text text-anchor="middle" x="2467" y="-62.6" font-family="Times,serif" font-size="14.00">PackagingService</text>
</g>
<!-- PackagingService&#45;&gt;PackagingModule -->
<g id="edge27" class="edge">
<title>PackagingService&#45;&gt;PackagingModule</title>
<path fill="none" stroke="black" d="M2467.24,-84.97C2467.24,-103.89 2467.24,-130.8 2467.24,-130.8 2467.24,-130.8 2571.69,-130.8 2571.69,-130.8"/>
<polygon fill="black" stroke="black" points="2571.69,-134.3 2581.69,-130.8 2571.69,-127.3 2571.69,-134.3"/>
</g>
<!-- ProductComponent -->
<g id="node28" class="node">
<title>ProductComponent</title>
<polygon fill="#ffffb3" stroke="black" points="1736.38,-160.8 1611.62,-160.8 1611.62,-124.8 1736.38,-124.8 1736.38,-160.8"/>
<text text-anchor="middle" x="1674" y="-138.6" font-family="Times,serif" font-size="14.00">ProductComponent</text>
</g>
<!-- ProductComponent&#45;&gt;ProductModule -->
<g id="edge28" class="edge">
<title>ProductComponent&#45;&gt;ProductModule</title>
<path fill="none" stroke="black" d="M1653.1,-160.83C1653.1,-177.2 1653.1,-198.8 1653.1,-198.8 1653.1,-198.8 1575.8,-198.8 1575.8,-198.8"/>
<polygon fill="black" stroke="black" points="1575.8,-195.3 1565.8,-198.8 1575.8,-202.3 1575.8,-195.3"/>
</g>
<!-- ProductDetailComponent -->
<g id="node29" class="node">
<title>ProductDetailComponent</title>
<polygon fill="#ffffb3" stroke="black" points="1593.59,-160.8 1434.41,-160.8 1434.41,-124.8 1593.59,-124.8 1593.59,-160.8"/>
<text text-anchor="middle" x="1514" y="-138.6" font-family="Times,serif" font-size="14.00">ProductDetailComponent</text>
</g>
<!-- ProductDetailComponent&#45;&gt;ProductModule -->
<g id="edge29" class="edge">
<title>ProductDetailComponent&#45;&gt;ProductModule</title>
<path fill="none" stroke="black" d="M1496.82,-160.91C1496.82,-160.91 1496.82,-179.79 1496.82,-179.79"/>
<polygon fill="black" stroke="black" points="1493.32,-179.79 1496.82,-189.79 1500.32,-179.79 1493.32,-179.79"/>
</g>
<!-- ItemModule  -->
<g id="node32" class="node">
<title>ItemModule </title>
<polygon fill="#fb8072" stroke="black" points="1409.21,-293.8 1320.79,-293.8 1320.79,-257.8 1409.21,-257.8 1409.21,-293.8"/>
<text text-anchor="middle" x="1365" y="-271.6" font-family="Times,serif" font-size="14.00">ItemModule </text>
</g>
<!-- ProductModule&#45;&gt;ItemModule  -->
<g id="edge34" class="edge">
<title>ProductModule&#45;&gt;ItemModule </title>
<path fill="none" stroke="black" stroke-dasharray="5,2" d="M1462.11,-221.8C1424.34,-221.8 1379.78,-221.8 1379.78,-221.8 1379.78,-221.8 1379.78,-247.52 1379.78,-247.52"/>
<polygon fill="black" stroke="black" points="1376.28,-247.52 1379.78,-257.52 1383.28,-247.52 1376.28,-247.52"/>
</g>
<!-- PackagingModule  -->
<g id="node33" class="node">
<title>PackagingModule </title>
<polygon fill="#fb8072" stroke="black" points="1302.87,-293.8 1181.13,-293.8 1181.13,-257.8 1302.87,-257.8 1302.87,-293.8"/>
<text text-anchor="middle" x="1242" y="-271.6" font-family="Times,serif" font-size="14.00">PackagingModule </text>
</g>
<!-- ProductModule&#45;&gt;PackagingModule  -->
<g id="edge35" class="edge">
<title>ProductModule&#45;&gt;PackagingModule </title>
<path fill="none" stroke="black" stroke-dasharray="5,2" d="M1462.29,-216.8C1394,-216.8 1282.29,-216.8 1282.29,-216.8 1282.29,-216.8 1282.29,-247.78 1282.29,-247.78"/>
<polygon fill="black" stroke="black" points="1278.79,-247.78 1282.29,-257.78 1285.79,-247.78 1278.79,-247.78"/>
</g>
<!-- ProductComponent  -->
<g id="node34" class="node">
<title>ProductComponent </title>
<polygon fill="#fb8072" stroke="black" points="1736.38,-293.8 1607.62,-293.8 1607.62,-257.8 1736.38,-257.8 1736.38,-293.8"/>
<text text-anchor="middle" x="1672" y="-271.6" font-family="Times,serif" font-size="14.00">ProductComponent </text>
</g>
<!-- ProductModule&#45;&gt;ProductComponent  -->
<g id="edge36" class="edge">
<title>ProductModule&#45;&gt;ProductComponent </title>
<path fill="none" stroke="black" stroke-dasharray="5,2" d="M1565.77,-216.8C1619.15,-216.8 1694.65,-216.8 1694.65,-216.8 1694.65,-216.8 1694.65,-247.78 1694.65,-247.78"/>
<polygon fill="black" stroke="black" points="1691.15,-247.78 1694.65,-257.78 1698.15,-247.78 1691.15,-247.78"/>
</g>
<!-- ProductDetailComponent  -->
<g id="node35" class="node">
<title>ProductDetailComponent </title>
<polygon fill="#fb8072" stroke="black" points="1590.09,-293.8 1427.91,-293.8 1427.91,-257.8 1590.09,-257.8 1590.09,-293.8"/>
<text text-anchor="middle" x="1509" y="-271.6" font-family="Times,serif" font-size="14.00">ProductDetailComponent </text>
</g>
<!-- ProductModule&#45;&gt;ProductDetailComponent  -->
<g id="edge37" class="edge">
<title>ProductModule&#45;&gt;ProductDetailComponent </title>
<path fill="none" stroke="black" stroke-dasharray="5,2" d="M1514,-226.02C1514,-226.02 1514,-247.53 1514,-247.53"/>
<polygon fill="black" stroke="black" points="1510.5,-247.53 1514,-257.53 1517.5,-247.53 1510.5,-247.53"/>
</g>
<!-- ProductRoutingModule -->
<g id="node31" class="node">
<title>ProductRoutingModule</title>
<polygon fill="#8dd3c7" stroke="black" points="1410.22,-160.8 1407.22,-164.8 1386.22,-164.8 1383.22,-160.8 1261.78,-160.8 1261.78,-124.8 1410.22,-124.8 1410.22,-160.8"/>
<text text-anchor="middle" x="1336" y="-138.6" font-family="Times,serif" font-size="14.00">ProductRoutingModule</text>
</g>
<!-- ProductRoutingModule&#45;&gt;ProductModule -->
<g id="edge32" class="edge">
<title>ProductRoutingModule&#45;&gt;ProductModule</title>
<path fill="none" stroke="black" d="M1350.22,-161.1C1350.22,-179.07 1350.22,-203.8 1350.22,-203.8 1350.22,-203.8 1452.18,-203.8 1452.18,-203.8"/>
<polygon fill="black" stroke="black" points="1452.18,-207.3 1462.18,-203.8 1452.18,-200.3 1452.18,-207.3"/>
</g>
<!-- ProductService -->
<g id="node36" class="node">
<title>ProductService</title>
<ellipse fill="#fdb462" stroke="black" cx="1168" cy="-142.8" rx="70.07" ry="18"/>
<text text-anchor="middle" x="1168" y="-138.6" font-family="Times,serif" font-size="14.00">ProductService</text>
</g>
<!-- ProductService&#45;&gt;ProductModule -->
<g id="edge38" class="edge">
<title>ProductService&#45;&gt;ProductModule</title>
<path fill="none" stroke="black" d="M1209.67,-157.55C1209.67,-176.73 1209.67,-207.8 1209.67,-207.8 1209.67,-207.8 1452.38,-207.8 1452.38,-207.8"/>
<polygon fill="black" stroke="black" points="1452.38,-211.3 1462.38,-207.8 1452.38,-204.3 1452.38,-211.3"/>
</g>
</g>
</svg>
